<svg id="Layer_1" data-name="Layer 1" xmlns="http://www.w3.org/2000/svg" viewBox="0 0 240 177.06"><defs><style>.cls-1{fill:#d3d1c5;}</style></defs><path class="cls-1" d="M150,141.15H79c-4.39,0-4.64-.3-3.86-4.51,3.16-17.1,7.07-34,13.59-50.18,2.91-7.21,6.46-14.11,11.64-20,4.41-5.07,9.94-5.77,16-4.2,4.33,1.13,8.61,2.49,12.86,3.9a65.46,65.46,0,0,0,46.11-1.41c1.1-.43,2.21-.86,3.33-1.26,10.36-3.65,16.71-1.74,23.52,7,4.93,6.37,8.12,13.66,11,21.08,5.78,15.09,9,30.85,11.9,46.68.42,2.3-.64,2.94-2.69,2.93-6.66,0-13.33,0-20,0Z" transform="translate(-30 -61.47)"/><path class="cls-1" d="M149.68,168q-53.73,0-107.45,0c-6.15,0-10.47-3.17-11.86-8.57a11.42,11.42,0,0,1,8.8-14.12,22.63,22.63,0,0,1,4.36-.33q106.48,0,213,0c7,0,11.25,2.75,13,8.3a11.34,11.34,0,0,1-9.61,14.63,42.75,42.75,0,0,1-4.39.11Z" transform="translate(-30 -61.47)"/><path class="cls-1" d="M190.46,238.24a24.66,24.66,0,0,1-25.05-24.72,6.92,6.92,0,0,0-3.91-6.58c-7.28-4.16-14.72-4.31-22.42-1.33-3.21,1.25-4.58,3.26-4.51,6.87.19,9.6-3.8,17.26-12.08,22.23a24.31,24.31,0,0,1-25.37.49c-8.27-4.53-12.8-11.83-12.94-21.46-.17-11,4.76-19.09,14.68-23.63s19.45-2.72,27.82,4.38a21.09,21.09,0,0,1,4.81,6.28c.91,1.69,1.94,1.86,3.56,1,9.88-5.16,19.69-4.78,29.3.69,2.2,1.24,3,.2,4-1.52,6.35-10.85,18-15.59,29.49-12.14a25.25,25.25,0,0,1,17.77,28.27C213.86,229.32,203.22,238.25,190.46,238.24Z" transform="translate(-30 -61.47)"/></svg>